<svg xmlns="http://www.w3.org/2000/svg" width="902.66667" height="178.66667" version="1.0" viewBox="0 0 677 134">
  <path d="M51 21.1c-1.4.4-4.6.7-7.1.8-2.6.1-5.1.7-5.7 1.3-1.5 1.9-5.4 16.6-4.7 17.8.3.5.2 1.7-.4 2.7-.5 1-1.4 4.3-2.1 7.3-1.8 8.5-1.9 8.7-4 9.3-2.2.6-2.6 3.6-1 6.7 1 1.8-1.8 12.9-4 15.4-.8 1-3 12.1-3 15.3 0 2.2 6.9 1.5 10.3-.9 1.7-1.3 4.2-2.1 5.4-2 3.6.5 6.9-3.7 8.3-10.4.6-3.2 1.9-8 2.7-10.5 1.4-4.4 1.8-4.8 7.3-6.8 3.3-1.2 7.9-2.1 10.2-2 2.4.1 6.2-.2 8.6-.6 5-.9 5-.8 1.7 8.1-1.4 3.6-2.5 7.7-2.5 9.1 0 1.3-.4 3.2-.9 4.1-.4.9-1.1 3.4-1.5 5.5-.6 3-.4 3.8 1.1 4.4 1 .4 2.4 1.3 3.1 2 2 1.9 3.8 1.6 6.8-1.2 1.4-1.3 3.4-2.7 4.3-3 2.7-.8 6.8-10.3 8.6-19.9 2-10.9 2.8-12.6 6.2-12.6 2.3 0 7.3-1.4 15.6-4.3 4.1-1.4 3.5-3.7-1-3.7-2.1 0-6.2-.3-9.1-.7-4.3-.5-5.2-.9-4.7-2.2.4-.9 1-3.6 1.5-6.1 1.4-7.4 6.6-15.7 11.1-18 2.1-1.1 3.9-2.4 3.9-2.9 0-1.7-7.1-2-12.2-.4-4.6 1.3-5.3 1.3-6.3 0-1-1.4-2.7-1.5-9.1-.1-1.6.3-2.3 1.4-2.8 4.1-.4 2.1-1.3 5.4-2 7.3-2.5 6.5-4.6 13.5-4.6 15.2 0 3.4-2.8 4.8-9.8 4.8-3.7 0-9.2.7-12.2 1.5-8.2 2.2-8 2.4-5.9-5.7 1.1-3.9 1.9-7.9 1.9-8.9 0-1.9 6.1-15.1 8-17.4.6-.8.9-1.9.5-2.5-.7-1.1-6.3-1.1-10.5.1z"/>
  <path d="M395 21.1c-1.4.4-4.6.7-7.1.8-2.6.1-5.1.7-5.7 1.3-1.5 1.9-5.4 16.6-4.7 17.8.3.5.2 1.7-.4 2.7-.5 1-1.4 4.3-2.1 7.3-1.8 8.5-1.9 8.7-4 9.3-2.2.6-2.6 3.6-1 6.7 1 1.8-1.8 12.9-4 15.4-.8 1-3 12.1-3 15.3 0 2.2 6.9 1.5 10.3-.9 1.7-1.3 4.2-2.1 5.4-2 3.6.5 6.9-3.7 8.3-10.4.6-3.2 1.9-8 2.7-10.5 1.4-4.4 1.8-4.8 7.3-6.8 3.3-1.2 7.9-2.1 10.2-2 2.4.1 6.2-.2 8.6-.6 5-.9 5-.8 1.7 8.1-1.4 3.6-2.5 7.7-2.5 9.1 0 1.3-.4 3.2-.9 4.1-.4.9-1.1 3.4-1.5 5.5-.6 3-.4 3.8 1.1 4.4 1 .4 2.4 1.3 3.1 2 2 1.9 3.8 1.6 6.8-1.2 1.4-1.3 3.4-2.7 4.3-3 2.7-.8 6.8-10.3 8.6-19.9 2-10.9 2.8-12.6 6.2-12.6 2.3 0 7.3-1.4 15.6-4.3 4.1-1.4 3.5-3.7-1-3.7-2.1 0-6.2-.3-9.1-.7-4.3-.5-5.2-.9-4.7-2.2.4-.9 1-3.6 1.5-6.1 1.4-7.4 6.6-15.7 11.1-18 2.1-1.1 3.9-2.4 3.9-2.9 0-1.7-7.1-2-12.2-.4-4.6 1.3-5.3 1.3-6.3 0-1-1.4-2.7-1.5-9.1-.1-1.6.3-2.3 1.4-2.8 4.1-.4 2.1-1.3 5.4-2 7.3-2.5 6.5-4.6 13.5-4.6 15.2 0 3.4-2.8 4.8-9.8 4.8-3.7 0-9.2.7-12.2 1.5-8.2 2.2-8 2.4-5.9-5.7 1.1-3.9 1.9-7.9 1.9-8.9 0-1.9 6.1-15.1 8-17.4.6-.8.9-1.9.5-2.5-.7-1.1-6.3-1.1-10.5.1z"/>
  <path d="M630.7 36c-1.4 1.1-3.3 2-4.2 2-2.2 0-10.6 6.1-14 10.1-1.4 1.7-2.5 4-2.5 5.2 0 1.2-1.1 4.4-2.5 7.1-5.3 10.5-2.2 25.7 6.5 31 10.2 6.4 18.3 6.8 31 1.9 15.2-5.9 23.1-20.6 20.6-38.1C663.5 40.8 655.3 34 640 34c-5.2 0-7.3.5-9.3 2zm17.5 8.7c2 2.2 2.7 4.2 3.2 9.3.6 5.7.3 7.5-2.3 14.2-7.3 19.5-15.2 25.3-23.9 17.4l-3.7-3.5.2-10.5c.1-9.9.3-10.9 3.3-16.1 3.1-5.5 6.7-8.9 12.5-11.9 4.5-2.3 7.8-2 10.7 1.1z"/>
  <path d="M164.5 36.3c-6.6.9-7.2 1.2-10.3 5.2-1.7 2.3-3.2 5.2-3.2 6.4 0 1.2-1.9 4.1-4.2 6.6-3.9 4.1-8.6 11.1-10.7 16.1-.7 1.6-2.4 2.3-8 3.2-3.8.7-8.1 1.2-9.5 1.2-1.6 0-2.6.6-2.6 1.4 0 2.5 4.2 4.6 9.2 4.6 2.7 0 4.8.2 4.8.5 0 .7-1.9 3.1-4.9 6.1-2.1 2.1-2.3 2.7-1.2 5 1 2.4 1.6 2.6 4.9 2 6.8-1 9.5-3.1 11.4-8.4 1.5-4.2 2.3-5 4.9-5.6 4-.8 13.9-.8 20.7 0l5.2.7v4.2c0 3 .6 4.7 2.1 6.1 1.2 1 2.8 3.2 3.6 4.7 1.5 2.9 5.3 5 7.7 4.1 1.9-.7 3.7-13.4 2.6-17.7-.8-2.9-2.1-27.5-2-38.6 0-3.2-.6-5.1-2.2-6.8-2.4-2.6-5.7-2.8-18.3-1zm3.5 14.1c0 2.5.4 4.8 1 5.1.6.3.9 3.8.7 7.8l-.3 7.2-9.4.8c-12.5.9-12.6.9-9.2-3.3 1.6-1.9 3.3-4.6 3.7-5.9 1-3.3 10.7-16 12.3-16.1.8 0 1.2 1.5 1.2 4.4z"/>
  <path d="M205.6 35.8c-.3.5 1.1 1.6 3 2.5 1.9.9 3.8 2.7 4.3 3.9.9 2.4-.8 13.5-3.4 22.3-.8 2.7-2.1 8.2-2.9 12.2-1.5 7.6-5.2 14.5-8.7 16.3-1.2.7-1.7 1.6-1.3 2 1.2 1.2 40.2-.6 43.8-2 1.6-.6 3.1-.8 3.4-.5.3.2 3.2-1 6.5-2.7 4.1-2.2 6.4-4.2 7.5-6.4 1.4-3 1.4-3.6-.4-8.1-1.4-3.4-2.9-5.2-5.2-6.3-1.7-.8-3.2-1.7-3.2-2 0-.3 1.7-1.4 3.8-2.5 11.8-6.3 14-9.1 12.9-16.3-.8-4.7-3.6-7-12.4-10.1-6.9-2.5-9.7-2.7-33.8-2.2-4.4 0-9.2-.2-10.7-.5-1.4-.3-2.9-.1-3.2.4zm34.8 9.1c1.6.9 3.8 2.8 4.9 4.3 1.8 2.3 1.8 2.7.3 5.5-1.8 3.5-6.2 5.8-12.9 6.7-3.6.4-4.9.2-5.3-.8-.5-1.4 2.1-12.5 3.8-15.9 1.1-2.2 5.3-2.1 9.2.2zM235.2 69c6.3 1.8 8.4 7 5.3 13-1.8 3.4-2.8 3.8-14 5.5-6.4.9-6.8.1-4.6-9.3 1.1-4.5 2.2-8.6 2.6-9.2.8-1.3 5.9-1.3 10.7 0z"/>
  <path d="M362.8 35.5c-.3.3-10.8.7-23.4.8l-22.9.2-.3 2.7c-.2 1.6-.7 2.8-1.1 2.8-.5 0-1.1.9-1.4 2-.5 1.8-.1 1.9 9.4 1.3l9.9-.6v2.4c0 1.3-1 5.3-2.1 8.9-1.1 3.6-2.4 8.7-2.9 11.5-.4 2.7-2 8.4-3.4 12.5-6.1 18.2-6.5 20.6-2.7 18.3 2.7-1.7 10.2-3.7 12.9-3.4 2.8.3 4.6-3.6 6-13 1.8-11.4 5.2-26.3 6.7-29.1.8-1.4 1.5-3.3 1.5-4.1 0-2 3.8-4.7 6.5-4.7 5.9 0 14.5-4.8 14.5-8.1 0-1-6.3-1.2-7.2-.4z"/>
  <path d="M538.5 36c-.4.6-.5 1.2-.4 1.4.2.1 1.8 1.2 3.5 2.4 2.9 2 3.1 2.4 2.7 7.9-.3 3.2-.8 6.7-1.3 7.8-1 2.2-5.5 18.9-7.5 28-1.3 5.8-2.6 7.6-8.1 11.3-1.6 1-.8 1.1 4.6.7 3.6-.3 9.8-.8 13.8-1.1 6.4-.5 7.2-.8 6.5-2.2-1.1-2.4-.7-12.5.6-15 2.4-4.5 11.1-1.4 12.5 4.4.4 1.4.2 5.1-.4 8.1-1.6 7.5 0 13.2 5 17.7 4.6 4.1 9.8 5.2 17.7 3.6 8.9-1.8 23.3-11.3 20.8-13.8-.3-.3-2.6.6-5.3 2.1-3.5 1.9-6.6 2.7-11.6 3-6.3.3-7 .1-9.7-2.4-3.1-2.9-3.5-5.5-1.9-12.6 1.1-4.8-.2-8.3-4.7-11.9l-2.8-2.2 3-.7c6.2-1.5 12.2-8 15.1-16.3 2.3-6.8-2.3-14.8-10.5-18.4-3.8-1.6-6.4-1.8-18.5-1.6-7.8.2-16-.1-18.2-.5-2.9-.6-4.4-.5-4.9.3zm31.9 10.4c3 2.8 3.6 4 3.6 7.5 0 8.9-7.5 16.1-16.7 16.1-2.2 0-2.4-.3-1.8-3.3.4-1.7 1.3-5 2.1-7.1.7-2.2 1.1-4.3.8-4.7-.5-.8 2.4-8.7 3.9-10.7 1.6-2.1 4.4-1.3 8.1 2.2z"/>
  <path d="M296 37c-3.6.4-8.5.5-10.9.2-4.1-.5-4.4-.4-3.6 1.4 1.1 2.4 1.5 14.6.5 15.9-.4.5-1.5 4.1-2.4 8-1 3.8-2.1 7.9-2.6 9-1.9 4.6-4 12-4 14.4 0 1.4-1.2 3.7-2.7 5.3-1.4 1.5-2.4 3.1-2 3.4.3.3 3.2-.1 6.5-.9 4.1-1 7.2-1.2 10.3-.6 2.4.4 6.2.8 8.4.9h3.9l-3.3-2.8c-2.4-2-3.4-3.8-3.8-6.9-.3-2.4-.1-4.8.4-5.5.6-.7 1.3-3.1 1.7-5.3 1.9-10.9 10.4-31.7 14.1-34.1 5.2-3.4 3.1-3.9-10.5-2.4z"/>
  <path d="M471.5 37.9c-.2.2.6 1.2 1.8 2.1 2.6 2.2 2.7 8 .3 14.9-.9 2.4-1.6 5.9-1.6 7.7 0 1.9-.6 5.1-1.4 7.1-5.2 13.9-5.4 18-1.3 22.9 3.2 3.7 9.6 4.1 21.7 1.5 5.2-1.2 11.5-2.1 14.1-2.1 2.6 0 6.7-.8 9.1-1.9 10.4-4.4 7.7-7.5-6-6.8-4.8.3-9.4.5-10.2.5-.8 0-4.3 0-7.7.1l-6.3.1v-3c0-1.7.6-4.6 1.4-6.4 1.4-3.3 1.2-3.2 12.8-6.2.9-.3 1.9 0 2.3.6 1 1.6 14 1.3 15.4-.4.9-1.1.5-1.7-1.6-3.2-1.6-1.1-3.2-1.9-3.8-2-.5 0-3-.6-5.3-1.3-2.7-.7-6.4-1-9.7-.6-3.3.5-5.5.3-5.9-.3-.4-.6.1-3.8 1.1-7.2 2.1-7 1.3-6.7 16.6-7.4 8.5-.4 11.3-.9 13.5-2.4 1.5-1.1 4.3-2.7 6.3-3.5 6.1-2.5 6-4.1-.2-3.4-5.8.7-28.1.9-44.7.5-5.7-.2-10.5-.1-10.7.1z"/>
</svg>
